<svg xmlns="http://www.w3.org/2000/svg" viewBox="1.9 -4.1 124.2 107.2">
  <path d="M 8 0 L 8 66 A 4 4 90 0 1 16 80 L 36 92 L 92 92 L 112 80 A 4 4 90 0 1 120 66 L 120 0 Z M 2 9 A 4 4 90 0 1 12 20 L 10 63 C 14 61 28 68 19 80 L 36 90 L 49 90 L 56 97 L 60 97 L 64 101 L 68 97 L 72 97 L 81 90 L 92 90 L 109 80 C 100 68 114 61 118 63 L 116 20 A 4 4 90 0 1 126 9 L 126 -4 L 2 -4 Z M 56 95 L 64 103 L 72 95 L 69 98 L 65 98 L 64 99 L 63 98 L 59 98 L 56 95 Z M 64 95 L 67 92 L 64 89 L 61 92 Z" stroke="#FF0000" stroke-width="0.1" fill="none"/>
</svg>