<svg xmlns="http://www.w3.org/2000/svg" viewBox="-0.1 -0.1 124.2 107.2">
  <path d="M 0 0 L 0 13 C 3 11 6 11 9 14 C 10 15 11 19 6 22 L 6 70 A 4 4 90 0 1 15 84 L 34 96 L 90 96 L 109 84 A 4 4 90 0 1 118 70 L 118 22 C 113 19 114 15 115 14 C 118 11 121 11 124 13 L 124 0 Z M 0 13 A 4 4 90 0 1 8 24 L 8 67 C 14 64 27 72 18 84 L 34 94 L 47 94 L 54 101 L 58 101 L 62 105 L 66 101 L 70 101 L 79 94 L 90 94 L 106 84 C 97 72 110 64 116 67 L 116 24 A 4 4 90 0 1 124 13 L 124 0 L 0 0 Z M 54 99 L 62 107 L 70 99 L 67 102 L 63 102 L 62 103 L 61 102 L 57 102 L 54 99 Z M 62 99 L 65 96 L 62 93 L 59 96 Z" stroke="#FF0000" stroke-width="0.1" fill="none"/>
</svg>